<svg width="512" height="512" viewBox="0 0 512 512" fill="none" xmlns="http://www.w3.org/2000/svg">
  <rect width="512" height="512" rx="104" fill="#FFFFFF"/>
  <rect x="24" y="24" width="464" height="464" rx="92" fill="url(#surface)" stroke="#DCE8FF" stroke-width="3"/>
  <path d="M256 82 386 128v102c0 85-52 160-130 199-78-39-130-114-130-199V128L256 82Z" fill="url(#shieldFill)" stroke="url(#shieldStroke)" stroke-width="16" stroke-linejoin="round"/>
  <path d="M164 271h52l24-48 36 99 32-132 28 81h48" stroke="#EF4444" stroke-width="18" stroke-linecap="round" stroke-linejoin="round"/>
  <path d="M164 271h52l24-48 36 99 32-132 28 81h48" stroke="#FFB4B4" stroke-width="5" stroke-linecap="round" stroke-linejoin="round"/>
  <path d="M193 152 256 130l63 22" stroke="#FFFFFF" stroke-opacity=".72" stroke-width="10" stroke-linecap="round"/>
  <path d="M190 379c23 21 45 37 66 49 21-12 43-28 66-49" stroke="#0B49C8" stroke-opacity=".18" stroke-width="12" stroke-linecap="round"/>
  <defs>
    <linearGradient id="surface" x1="80" y1="34" x2="414" y2="478" gradientUnits="userSpaceOnUse">
      <stop stop-color="#FFFFFF"/>
      <stop offset="1" stop-color="#F2F7FF"/>
    </linearGradient>
    <linearGradient id="shieldFill" x1="154" y1="88" x2="374" y2="428" gradientUnits="userSpaceOnUse">
      <stop stop-color="#FFFFFF"/>
      <stop offset=".58" stop-color="#F7FBFF"/>
      <stop offset="1" stop-color="#EAF2FF"/>
    </linearGradient>
    <linearGradient id="shieldStroke" x1="134" y1="91" x2="385" y2="407" gradientUnits="userSpaceOnUse">
      <stop stop-color="#0F5BDE"/>
      <stop offset=".58" stop-color="#2563EB"/>
      <stop offset="1" stop-color="#063B9E"/>
    </linearGradient>
  </defs>
</svg>
